<svg version="1.1" xmlns="http://www.w3.org/2000/svg" width="48" height="48"><defs><linearGradient x1="9.1503" y1="9.15031" x2="54.53234" y2="54.53232" gradientUnits="userSpaceOnUse" id="color-1"><stop offset="0" stop-color="#000000" stop-opacity="0"></stop><stop offset="1" stop-color="#000000" stop-opacity="0"></stop></linearGradient><filter id="dropshadow-base"><feColorMatrix type="matrix" values="0 0 0 0 0  0 0 0 0 0  0 0 0 0 0  0 0 0 .8 0"></feColorMatrix> <feOffset dx="0" dy="1"></feOffset> <feGaussianBlur stdDeviation="1"></feGaussianBlur> <feComposite in="SourceGraphic"></feComposite></filter><filter id="dropshadow-banner" x="-10%" y="-10%" width="120%" height="130%"><feColorMatrix type="matrix" values="0 0 0 0 0  0 0 0 0 0  0 0 0 0 0  0 0 0 .4 0"></feColorMatrix> <feOffset dx="0" dy="1"></feOffset> <feGaussianBlur stdDeviation="0.5"></feGaussianBlur> <feComposite in="SourceGraphic"></feComposite></filter></defs><g fill="none" fill-rule="none" stroke="none" stroke-width="none" stroke-linecap="butt" stroke-linejoin="miter" stroke-miterlimit="10" stroke-dasharray="" stroke-dashoffset="0" font-family="none" font-weight="none" font-size="none" text-anchor="none" style="mix-blend-mode: normal"><path d="M2,24c0,-12.15026 9.84974,-22 22,-22c12.15026,0 22,9.84974 22,22c0,12.15026 -9.84974,22 -22,22c-12.15026,0 -22,-9.84974 -22,-22z" id="base 1 5" fill="#e9e8ea" fill-rule="nonzero" stroke-width="1"></path><path d="M18.17207,12.35053l-1.58938,-2.16712l1.40202,-1.03309l1.9371,1.9371c1.19674,-0.64978 2.56839,-1.01943 4.02541,-1.01943c0.00019,0 0.00039,0 0.00058,0c0.43876,0 0.86978,0.03355 1.29062,0.09819c1.33334,0.2047 2.56459,0.72128 3.61559,1.47205l1.82489,-2.4879l1.40202,1.03309l13.91884,13.91884c-0.05358,11.77539 -9.35832,21.36545 -21.02038,21.87634l-15.07403,-15.07403c-0.4662,-0.4662 -0.75506,-1.1105 -0.75506,-1.82086v-6.18003c0,-1.41884 1.15143,-2.57317 2.5668,-2.57317h0.03016c0.70653,0 1.34729,0.28764 1.81188,0.75224l1.95797,1.95797l0,-2.36972l1.34633,0l-1.34633,-1.34633v-0.87184c0,-2.40264 1.0215,-4.57209 2.65496,-6.10229z" fill="url(#color-1)" fill-rule="nonzero" stroke-width="1"></path><path d="M15.51711,19.32466v-0.87184c0,-2.40264 1.0215,-4.57208 2.65496,-6.1023l-1.58938,-2.16713l1.40202,-1.0331l1.57372,2.14625c1.27905,-0.77903 2.782,-1.22858 4.38878,-1.22858c0.00019,0 0.00039,0 0.00058,0c0.43876,0 0.86978,0.03355 1.29061,0.09819c1.33334,0.20471 2.56459,0.72128 3.61559,1.47205l1.82489,-2.48791l1.40202,1.0331l-1.91596,2.6132c1.3736,1.49193 2.21295,3.47808 2.21295,5.65623v0.87184zM22.52141,14.7549c-0.09397,-0.25407 -0.28191,-0.45593 -0.52786,-0.56847c-0.24537,-0.11253 -0.52032,-0.12239 -0.77381,-0.02784c-0.25291,0.09455 -0.45477,0.28249 -0.56672,0.52902c-0.23203,0.50872 -0.00754,1.11199 0.49944,1.34401c0.13458,0.06149 0.27727,0.09223 0.42055,0.09223c0.11891,0 0.23899,-0.02146 0.35384,-0.06439c0.25349,-0.09455 0.45477,-0.28249 0.56672,-0.52902c0.11253,-0.24653 0.12239,-0.52206 0.02784,-0.77555zM11.74726,20.3305c1.41536,0 2.56679,1.15433 2.56679,2.57317v6.18003c0,1.41826 -1.15143,2.57317 -2.56679,2.57317h-0.03016c-1.41536,0 -2.56679,-1.15491 -2.56679,-2.57317v-6.18003c0,-1.41884 1.15143,-2.57317 2.56679,-2.57317zM15.51711,20.671h16.86079v12.23302h-2.71065v3.37251c0,1.41884 -1.15839,2.57317 -2.58188,2.57317c-1.42348,0 -2.58188,-1.15433 -2.58188,-2.57317v-3.37251h-1.05514v3.37251c0,1.41884 -1.15839,2.57317 -2.58188,2.57317c-1.42406,0 -2.58246,-1.15433 -2.58246,-2.57317v-3.37251h-2.76692zM36.28291,20.3305c1.41536,0 2.56679,1.15433 2.56679,2.57317v6.17945c0,1.41884 -1.15143,2.57317 -2.56679,2.57317h-0.03016c-1.41536,0 -2.56679,-1.15433 -2.56679,-2.57317v-6.17945c0,-1.41884 1.15143,-2.57317 2.56679,-2.57317zM26.74313,14.18644c-0.24595,-0.11253 -0.5209,-0.12239 -0.77439,-0.02784c-0.25349,0.09455 -0.45419,0.28249 -0.56672,0.52902c-0.11253,0.24653 -0.12239,0.52206 -0.02784,0.77555c0.09455,0.25407 0.28191,0.45593 0.52786,0.56847c0.134,0.06149 0.27669,0.09223 0.41997,0.09223c0.11949,0 0.23899,-0.02146 0.35384,-0.06439c0.25349,-0.09455 0.45477,-0.28249 0.5673,-0.52902c0.23145,-0.50872 0.00696,-1.11199 -0.50002,-1.34401z" id="Layer 1 1" fill="none" fill-rule="evenodd" stroke-width="0"></path><g stroke-width="1"><g id="Layer 1"><path d="M30.16495,12.7966c1.3736,1.49193 2.21295,3.47808 2.21295,5.65623v0.87184h-16.86079v-0.87184c0,-2.40264 1.0215,-4.57208 2.65496,-6.1023l-1.58938,-2.16713l1.40202,-1.0331l1.57372,2.14625c1.27905,-0.77903 2.782,-1.22858 4.38878,-1.22858c1.82895,0 3.5239,0.58239 4.90678,1.57024l1.82489,-2.48791l1.40202,1.0331zM22.52141,14.7549c-0.09397,-0.25407 -0.28191,-0.45593 -0.52786,-0.56847c-0.24537,-0.11253 -0.52032,-0.12239 -0.77381,-0.02784c-0.25291,0.09455 -0.45477,0.28249 -0.56672,0.52902c-0.23203,0.50872 -0.00754,1.11199 0.49944,1.34401c0.13458,0.06149 0.27727,0.09223 0.42055,0.09223c0.11891,0 0.23899,-0.02146 0.35384,-0.06439c0.25349,-0.09455 0.45477,-0.28249 0.56672,-0.52902c0.11253,-0.24653 0.12239,-0.52206 0.02784,-0.77555zM26.74313,14.18644c-0.24595,-0.11253 -0.5209,-0.12239 -0.77439,-0.02784c-0.25349,0.09455 -0.45419,0.28249 -0.56672,0.52902c-0.11253,0.24653 -0.12239,0.52206 -0.02784,0.77555c0.09455,0.25407 0.28191,0.45593 0.52786,0.56847c0.134,0.06149 0.27669,0.09223 0.41997,0.09223c0.11949,0 0.23899,-0.02146 0.35384,-0.06439c0.25349,-0.09455 0.45477,-0.28249 0.5673,-0.52902c0.23145,-0.50872 0.00696,-1.11199 -0.50002,-1.34401z" id="Layer 1" fill="#605e6d" fill-rule="evenodd"></path><path d="M11.74726,20.3305h-0.03016c-1.41536,0 -2.56679,1.15433 -2.56679,2.57317v6.18003c0,1.41826 1.15143,2.57317 2.56679,2.57317h0.03016c1.41536,0 2.56679,-1.15491 2.56679,-2.57317v-6.18003c0,-1.41884 -1.15143,-2.57317 -2.56679,-2.57317z" id="Layer 1" fill="#605e6d" fill-rule="nonzero"></path><path d="M36.28291,20.3305h-0.03016c-1.41536,0 -2.56679,1.15433 -2.56679,2.57317v6.17945c0,1.41884 1.15143,2.57317 2.56679,2.57317h0.03016c1.41536,0 2.56679,-1.15433 2.56679,-2.57317v-6.17945c0,-1.41884 -1.15143,-2.57317 -2.56679,-2.57317z" id="Layer 1" fill="#2d2a39" fill-rule="nonzero"></path><path d="M15.51711,32.90402h2.76692v3.37251c0,1.41884 1.15839,2.57317 2.58246,2.57317c1.42348,0 2.58188,-1.15433 2.58188,-2.57317v-3.37251h1.05514v3.37251c0,1.41884 1.15839,2.57317 2.58188,2.57317c1.42348,0 2.58188,-1.15433 2.58188,-2.57317v-3.37251h2.71065v-12.23302h-16.86079z" id="Layer 1" fill="#605e6d" fill-rule="nonzero"></path></g><path d="M36.28291,20.3305h-0.03016c-1.41536,0 -2.56679,1.15433 -2.56679,2.57317v6.17945c0,1.41884 1.15143,2.57317 2.56679,2.57317h0.03016c1.41536,0 2.56679,-1.15433 2.56679,-2.57317v-6.17945c0,-1.41884 -1.15143,-2.57317 -2.56679,-2.57317z" id="Layer 1" fill="#2d2a39" fill-rule="nonzero"></path><path d="M32.3779,19.32466h-8.43011v-9.2567c1.82895,0 3.52332,0.58297 4.9062,1.57024l1.82489,-2.48791l1.40202,1.0331l-1.91596,2.6132c1.3736,1.49193 2.21295,3.47808 2.21295,5.65623zM26.74313,14.18644c-0.24595,-0.11253 -0.5209,-0.12239 -0.77439,-0.02784c-0.25349,0.09455 -0.45419,0.28249 -0.56672,0.52902c-0.11253,0.24653 -0.12239,0.52206 -0.02784,0.77555c0.09455,0.25407 0.28191,0.45593 0.52786,0.56847c0.134,0.06149 0.27669,0.09223 0.41997,0.09223c0.11949,0 0.23899,-0.02146 0.35384,-0.06439c0.25349,-0.09455 0.45477,-0.28249 0.5673,-0.52902c0.23145,-0.50872 0.00696,-1.11199 -0.50002,-1.34401z" id="Layer 1" fill="#2d2a39" fill-rule="evenodd"></path><path d="M23.94779,20.671v12.23302h0.5557v3.37251c0,1.41884 1.15839,2.57317 2.58188,2.57317c1.42348,0 2.58188,-1.15433 2.58188,-2.57317v-3.37251h2.71065v-12.23302z" id="Layer 1" fill="#2d2a39" fill-rule="nonzero"></path><path d="M20.6681,23.1415h-1.23322l-2.35971,6.54315h1.4316l0.43215,-1.30863h2.22513l0.43273,1.30863h1.43102zM20.71044,27.06739h-1.31791l0.65199,-1.90378h0.01392z" id="A  1" fill="#2d2a39" fill-rule="nonzero"></path><path d="M25.93568,22.96748v6.54315h2.21817c1.21176,0 1.91364,-0.74539 1.91364,-1.82431c0,-1.05456 -0.51742,-1.50701 -1.24772,-1.64971c0.49654,-0.28539 0.7303,-0.80107 0.7303,-1.40376c0,-1.2454 -0.79411,-1.66537 -1.79995,-1.66537zM27.26809,25.52906v-1.41188h0.10615c0.58123,0 0.88576,0.19838 0.88576,0.6665c0,0.547 -0.3115,0.74539 -0.88576,0.74539zM27.26809,28.36036v-1.54646h0.41823c0.63053,0 0.97799,0.21404 0.97799,0.81673c0,0.51568 -0.34746,0.72972 -0.97799,0.72972z" id="B  1" fill="#605e6d" fill-rule="nonzero"></path></g><path d="M2,24c0,-12.15026 9.84974,-22 22,-22c12.15026,0 22,9.84974 22,22c0,12.15026 -9.84974,22 -22,22c-12.15026,0 -22,-9.84974 -22,-22z" id="base 1 1 1" fill="none" fill-rule="nonzero" stroke-width="1"></path><g fill="#000000" fill-rule="nonzero" stroke-width="1" font-family="Roboto, sans-serif" font-weight="400" font-size="14" text-anchor="start"><g id="Layer 1 1"></g></g><rect x="2" y="2" width="44" height="22" fill="none" fill-rule="nonzero" stroke-width="1"></rect><path d="M2,24v-22h44v22z" fill="none" fill-rule="nonzero" stroke-width="1"></path><path d="M2,24v-22h44v22z" fill="none" fill-rule="nonzero" stroke-width="1"></path><path d="M2,24v-22h44v22z" fill="none" fill-rule="nonzero" stroke-width="1"></path><path d="M2,24v-22h44v22z" fill="none" fill-rule="nonzero" stroke-width="1"></path></g></svg>